<svg xmlns="http://www.w3.org/2000/svg" width="216.86" height="30.7" viewBox="0 0 216.86 30.7"><title>PressFly</title><path d="M15,.73c3.29,0,5.84.82,7.67,2.46a8.29,8.29,0,0,1,2.75,6.48,8.29,8.29,0,0,1-2.75,6.5C20.8,17.79,18.25,18.6,15,18.6H8.41v8.82l3.45.57v2.58H.79V28l3.45-.57V3.91L.79,3.34V.73H15ZM8.41,15.45H15a6.19,6.19,0,0,0,4.69-1.63A5.75,5.75,0,0,0,21.2,9.71a5.86,5.86,0,0,0-1.55-4.14A6.12,6.12,0,0,0,15,3.91H8.41Z" transform="translate(-0.79 -0.3)" fill="#dd0009"/><path d="M41.87.75c3.36,0,5.94.73,7.73,2.17a7.39,7.39,0,0,1,2.69,6.13A6.26,6.26,0,0,1,51,12.91a8.18,8.18,0,0,1-3.58,2.64,6.32,6.32,0,0,1,3.64,2.6,8.37,8.37,0,0,1,1.11,4.45V25a4.41,4.41,0,0,0,.36,2,1.5,1.5,0,0,0,1.18.78l1,.12v2.64H52.52a3.76,3.76,0,0,1-3.46-1.64,7.35,7.35,0,0,1-1-4V22.64a5.3,5.3,0,0,0-1.47-3.91,5.23,5.23,0,0,0-3.91-1.48H36V27.42l3.46.57v2.58H28.34V28l3.45-.57V3.91l-3.45-.57V.75H41.87ZM36,14.08h5.49q3.49,0,5.08-1.3A4.56,4.56,0,0,0,48.12,9a4.77,4.77,0,0,0-1.53-3.73,6.91,6.91,0,0,0-4.72-1.37H36Z" transform="translate(-0.79 -0.3)" fill="#dd0009"/><path d="M57.69,30.57V28l3.45-.57V3.91l-3.45-.57V.73H81.37V7.91H77.79l-.34-4H65.32v9.65H77.11v3.18H65.32V27.42H77.7l.34-4H81.6v7.15Z" transform="translate(-0.79 -0.3)" fill="#dd0009"/><path d="M107.67,9.55h-3.16l-.78-4.27A7.64,7.64,0,0,0,101.19,4a12.1,12.1,0,0,0-3.69-.51,8.26,8.26,0,0,0-5.1,1.36A4.3,4.3,0,0,0,90.62,8.4a3.9,3.9,0,0,0,1.81,3.25,17.4,17.4,0,0,0,5.86,2.28,16.79,16.79,0,0,1,7.4,3.45A7.24,7.24,0,0,1,108.22,23a6.8,6.8,0,0,1-3,5.8,13.29,13.29,0,0,1-8,2.19,16.65,16.65,0,0,1-6.32-1.12,12.86,12.86,0,0,1-4.5-2.95V21.37h3.13l.81,4.28a9.93,9.93,0,0,0,2.88,1.58,11.59,11.59,0,0,0,4,.62,8.54,8.54,0,0,0,5-1.29,4.07,4.07,0,0,0,1.83-3.51,4.37,4.37,0,0,0-1.59-3.43,13.61,13.61,0,0,0-5.61-2.33A19,19,0,0,1,89.2,14a6.78,6.78,0,0,1-2.75-5.51,7,7,0,0,1,3.07-5.83A12.88,12.88,0,0,1,97.5.3a15.5,15.5,0,0,1,5.9,1.08A13.5,13.5,0,0,1,107.67,4Z" transform="translate(-0.79 -0.3)" fill="#dd0009"/><path d="M134.08,9.55h-3.16l-.78-4.27A7.74,7.74,0,0,0,127.6,4a12.1,12.1,0,0,0-3.69-.51,8.26,8.26,0,0,0-5.1,1.36A4.28,4.28,0,0,0,117,8.4a3.87,3.87,0,0,0,1.81,3.25,17.4,17.4,0,0,0,5.86,2.28,16.85,16.85,0,0,1,7.4,3.45A7.24,7.24,0,0,1,134.63,23a6.8,6.8,0,0,1-3,5.8,13.31,13.31,0,0,1-8,2.19,16.65,16.65,0,0,1-6.32-1.12,12.68,12.68,0,0,1-4.5-2.95V21.37H116l.81,4.28a9.93,9.93,0,0,0,2.88,1.58,11.55,11.55,0,0,0,4,.62,8.56,8.56,0,0,0,5-1.29,4.07,4.07,0,0,0,1.83-3.51,4.37,4.37,0,0,0-1.59-3.43,13.61,13.61,0,0,0-5.61-2.33A19,19,0,0,1,115.61,14a6.78,6.78,0,0,1-2.75-5.51,7,7,0,0,1,3.07-5.83,12.88,12.88,0,0,1,8-2.33,15.54,15.54,0,0,1,5.9,1.08A13.62,13.62,0,0,1,134.08,4Z" transform="translate(-0.79 -0.3)" fill="#dd0009"/><path d="M138.17,28l3.45-.57V3.91l-3.45-.57V.73H162V7.91h-3.56l-.34-4h-12.3V14.2h11.92v3.18H145.79v10l3.45.57v2.58H138.17Z" transform="translate(-0.79 -0.3)" fill="#2b2b2b"/><path d="M165.13,30.57V28l3.45-.57V3.91l-3.45-.57V.73H176.2V3.34l-3.45.57V27.42h10.71l.32-3.43h3.56v6.58Z" transform="translate(-0.79 -0.3)" fill="#2b2b2b"/><path d="M200.77,3.34l-3.33.39L203.9,15.9l6.46-12.17-3.3-.39V.73h10.58V3.34l-2.6.39-9.15,16.35v7.34l3.45.57v2.58H198.29V28l3.45-.57V19.77l-9-16-2.58-.39V.73h10.59Z" transform="translate(-0.79 -0.3)" fill="#2b2b2b"/></svg>